<svg xmlns="http://www.w3.org/2000/svg" width="1387" height="756" viewBox="0 0 1387 756">
<g>
<path d="M 1075.00 0.00 L 1075.00 756.00 L 312.00 756.00 L 312.00 0.00 ZM 422.00 169.00 L 422.00 588.00 L 618.00 588.00 L 618.08 581.25 C618.23,567.88 618.25,541.75 618.12,500.25 L 618.00 458.00 L 606.00 458.00 L 606.00 508.00 L 437.39 508.00 L 437.50 532.50 L 606.00 533.01 L 606.00 572.00 L 432.00 572.00 L 432.00 496.31 L 440.68 487.15 C445.45,482.12 449.73,478.00 450.18,478.00 C450.63,478.00 451.00,483.40 451.00,490.00 L 451.00 502.00 L 462.00 502.00 L 462.00 254.00 L 451.00 254.00 L 451.00 271.90 L 443.86 279.14 L 436.72 286.38 L 434.36 283.63 L 432.00 280.89 L 432.00 194.01 L 666.50 193.50 L 666.78 181.25 L 667.06 169.00 ZM 731.03 556.25 C746.45,572.61 759.49,586.00 760.03,586.00 C760.65,586.00 761.00,516.50 761.00,390.26 L 761.00 194.53 L 773.74 181.76 L 786.47 169.00 L 773.49 169.02 L 760.50 169.03 L 703.00 225.18 L 703.02 526.50 ZM 397.90 567.75 C406.90,577.24 414.66,585.00 415.13,585.00 C415.62,585.00 416.00,494.26 416.00,377.92 C416.00,244.46 415.65,170.95 415.03,171.17 C414.50,171.35 401.67,183.57 386.53,198.33 L 359.00 225.16 L 359.00 527.24 L 370.26 538.87 C376.46,545.27 388.89,558.26 397.90,567.75 ZM 766.67 587.33 C767.03,587.70 813.61,588.00 870.17,588.00 L 973.00 588.00 L 973.16 585.25 C973.25,583.74 973.38,554.49 973.45,520.25 L 973.57 458.00 L 962.03 458.00 L 961.50 507.50 L 781.00 508.01 L 781.00 532.99 L 961.50 533.50 L 961.79 550.50 C961.94,559.85 961.82,568.51 961.52,569.75 L 960.96 572.00 L 776.00 572.00 L 775.90 553.25 C775.85,542.94 775.87,467.79 775.95,386.25 C776.03,304.71 775.72,238.00 775.26,238.00 C774.79,238.00 772.52,239.93 770.21,242.29 L 766.00 246.58 L 766.00 416.62 C766.00,510.15 766.30,586.97 766.67,587.33 ZM 401.00 377.50 C401.00,478.47 400.64,545.00 400.08,545.00 C399.58,545.00 393.50,539.05 386.58,531.77 L 374.00 518.54 L 374.00 234.51 L 386.70 222.25 C393.68,215.51 399.75,210.00 400.20,210.00 C400.64,210.00 401.00,285.38 401.00,377.50 ZM 745.00 377.50 C745.00,478.47 744.64,545.00 744.08,545.00 C743.58,545.00 737.50,539.05 730.58,531.77 L 718.00 518.54 L 718.00 235.47 L 730.76 222.74 C737.78,215.73 743.86,210.00 744.26,210.00 C744.67,210.00 745.00,285.38 745.00,377.50 ZM 766.00 227.76 C766.00,233.69 766.39,237.00 767.08,237.00 C767.67,237.00 777.94,227.32 789.91,215.50 L 811.67 194.00 L 915.77 194.00 C977.48,194.00 1020.11,193.63 1020.45,193.09 C1020.76,192.58 1015.50,186.96 1008.76,180.59 L 996.50 169.00 L 895.86 169.00 L 795.22 169.00 L 783.11 180.60 C776.45,186.98 771.00,192.61 771.00,193.10 C771.00,193.60 775.38,194.00 780.73,194.00 L 790.47 194.00 L 778.23 206.26 L 766.00 218.53 ZM 724.00 243.00 L 724.00 513.00 L 740.00 513.00 L 740.00 243.00 ZM 379.99 502.25 L 380.00 513.00 L 395.00 513.00 L 395.00 243.00 L 379.05 243.00 L 379.52 367.25 C379.78,435.59 379.99,496.34 379.99,502.25 ZM 962.71 298.38 C963.10,298.77 965.69,298.96 968.46,298.79 L 973.50 298.50 L 973.32 267.50 C973.23,250.45 973.11,228.29 973.07,218.25 L 973.00 200.00 L 962.05 200.00 L 961.50 232.50 L 791.00 233.01 L 791.00 240.40 C791.00,246.21 791.34,247.92 792.58,248.39 C793.45,248.73 831.93,249.00 878.08,249.00 L 962.00 249.00 L 962.00 273.33 C962.00,286.72 962.32,297.99 962.71,298.38 ZM 607.00 249.00 L 607.00 299.00 L 618.00 299.00 L 618.07 269.75 C618.11,253.66 618.25,231.95 618.38,221.50 C618.51,211.05 618.43,201.94 618.20,201.25 C617.94,200.46 615.82,200.00 612.42,200.00 L 607.05 200.00 L 606.50 232.50 L 437.00 233.01 L 437.00 240.40 C437.00,246.21 437.34,247.92 438.58,248.39 C439.45,248.73 477.70,249.00 523.58,249.00 ZM 783.00 565.57 C783.00,565.81 821.92,566.00 869.50,566.00 L 956.00 566.00 L 956.00 550.00 L 797.80 550.00 L 790.40 557.57 C786.33,561.73 783.00,565.33 783.00,565.57 ZM 454.45 550.00 L 438.55 566.00 L 601.00 566.00 L 601.00 550.00 ZM 796.00 226.22 C796.00,226.65 832.00,227.00 876.00,227.00 L 956.00 227.00 L 956.00 211.00 L 810.55 211.00 L 803.27 218.22 C799.27,222.20 796.00,225.80 796.00,226.22 ZM 441.00 226.22 C441.00,226.65 477.00,227.00 521.00,227.00 L 601.00 227.00 L 601.00 211.00 L 455.55 211.00 L 448.27 218.22 C444.27,222.20 441.00,225.80 441.00,226.22 ZM 807.71 502.38 C808.11,502.77 809.79,502.96 811.46,502.80 L 814.50 502.50 L 815.01 254.00 L 807.00 254.00 L 807.00 377.83 C807.00,445.94 807.32,501.99 807.71,502.38 ZM 979.67 587.33 C980.03,587.70 981.51,588.00 982.95,588.00 C985.02,588.00 989.50,584.05 1004.28,569.19 L 1023.00 550.38 L 1023.00 458.00 L 1011.00 458.00 L 1011.00 540.52 L 979.00 572.48 L 979.00 579.57 C979.00,583.47 979.30,586.97 979.67,587.33 ZM 655.71 587.38 C656.10,587.77 658.69,587.96 661.46,587.79 L 666.50 587.50 L 666.76 522.75 L 667.01 458.00 L 655.00 458.00 L 655.00 522.33 C655.00,557.72 655.32,586.99 655.71,587.38 ZM 935.68 319.34 C936.05,319.72 957.09,319.90 982.43,319.76 L 1028.50 319.50 L 1028.79 311.75 L 1029.08 304.00 L 935.00 304.00 L 935.00 311.33 C935.00,315.37 935.30,318.97 935.68,319.34 ZM 580.68 319.34 C581.05,319.72 602.09,319.90 627.43,319.76 L 673.50 319.50 L 674.08 304.00 L 580.00 304.00 L 580.00 311.33 C580.00,315.37 580.30,318.97 580.68,319.34 ZM 935.00 437.00 L 935.00 452.00 L 1029.00 452.00 L 1029.00 437.00 ZM 581.00 437.00 L 581.00 452.00 L 674.00 452.00 L 674.00 437.00 ZM 1011.00 200.00 L 1011.00 299.10 L 1022.50 298.50 L 1022.76 249.25 L 1023.02 200.00 ZM 655.71 298.38 C656.10,298.77 658.69,298.96 661.46,298.79 L 666.50 298.50 L 666.76 249.25 L 667.02 200.00 L 655.00 200.00 L 655.00 248.83 C655.00,275.69 655.32,297.99 655.71,298.38 ZM 587.75 502.42 C588.16,502.84 590.08,502.92 592.00,502.60 C593.92,502.28 596.74,502.02 598.25,502.01 L 601.00 502.00 L 601.00 458.00 L 587.00 458.00 L 587.00 479.83 C587.00,491.84 587.34,502.01 587.75,502.42 ZM 942.00 458.00 L 942.00 502.00 L 956.00 502.00 L 956.00 458.00 L 942.00 458.00 ZM 587.71 298.38 C588.10,298.77 591.14,298.95 594.46,298.79 L 600.50 298.50 L 600.77 276.85 L 601.04 255.19 L 596.27 254.68 C593.65,254.40 590.49,254.16 589.25,254.15 L 587.00 254.12 L 587.00 275.90 C587.00,287.87 587.32,297.99 587.71,298.38 ZM 942.71 298.38 C943.10,298.77 946.14,298.95 949.46,298.79 L 955.50 298.50 L 955.77 276.75 L 956.04 255.00 L 942.00 255.00 L 942.00 276.33 C942.00,288.07 942.32,297.99 942.71,298.38 ZM 624.00 485.92 L 624.00 489.44 L 629.78 483.72 C632.96,480.57 636.01,478.00 636.56,478.00 C637.12,478.00 640.01,480.48 643.00,483.50 C645.99,486.52 648.78,489.00 649.22,489.00 C649.65,489.00 650.00,487.65 650.00,486.01 C650.00,483.80 648.82,481.81 645.50,478.45 C643.03,475.94 641.00,473.55 641.00,473.15 C641.00,472.75 643.03,470.43 645.50,468.00 C648.70,464.86 650.00,462.78 650.00,460.79 C650.00,459.26 649.66,458.00 649.25,458.00 C648.84,458.01 645.76,460.46 642.41,463.44 L 636.31 468.88 L 630.94 463.44 C627.99,460.45 625.22,458.00 624.78,458.00 C624.35,458.00 624.00,459.48 624.00,461.30 C624.00,463.83 624.93,465.50 628.00,468.50 C630.20,470.65 632.00,472.90 632.00,473.50 C632.00,474.10 630.20,476.35 628.00,478.50 C624.83,481.59 624.00,483.14 624.00,485.92 ZM 624.00 520.43 L 624.00 524.44 L 630.50 518.00 L 637.00 511.56 L 642.78 517.28 C645.96,520.43 648.88,523.00 649.28,523.00 C649.68,523.00 650.00,521.78 650.00,520.28 C650.00,518.40 648.58,516.13 645.35,512.85 L 640.70 508.13 L 645.35 502.96 C648.62,499.32 650.00,496.92 650.00,494.89 C650.00,493.30 649.67,492.00 649.28,492.00 C648.88,492.00 645.83,494.70 642.50,498.00 L 636.44 504.01 L 631.00 498.50 C628.01,495.48 625.22,493.00 624.78,493.00 C624.35,493.00 624.00,494.22 624.00,495.72 C624.00,497.59 625.39,499.85 628.50,503.00 L 633.01 507.58 L 628.50 512.00 C624.65,515.78 624.00,516.99 624.00,520.43 ZM 624.00 227.01 L 624.00 230.44 L 630.25 224.27 L 636.50 218.10 L 642.50 223.51 C645.80,226.49 648.84,228.94 649.25,228.96 C649.66,228.98 650.00,227.86 650.00,226.46 C650.00,224.81 648.36,222.16 645.33,218.92 L 640.65 213.92 L 645.33 209.18 C648.58,205.87 650.00,203.61 650.00,201.72 C650.00,200.22 649.52,199.00 648.93,199.00 C648.33,199.00 645.27,201.46 642.11,204.47 L 636.38 209.94 L 630.97 204.47 C628.00,201.46 625.22,199.00 624.78,199.00 C624.35,199.00 624.00,200.22 624.00,201.72 C624.00,203.61 625.43,205.88 628.71,209.22 L 633.42 214.00 L 628.71 218.78 C624.94,222.62 624.00,224.25 624.00,227.01 ZM 624.00 554.93 L 624.00 558.44 L 629.78 552.72 C632.96,549.57 636.01,547.00 636.56,547.00 C637.12,547.00 640.01,549.47 643.00,552.50 C645.99,555.53 648.78,558.00 649.22,558.00 C649.65,558.00 650.00,556.78 650.00,555.28 C650.00,553.36 648.53,551.08 645.00,547.50 L 639.99 542.43 L 645.00 537.50 C648.63,533.93 650.00,531.81 650.00,529.79 C650.00,528.25 649.68,527.00 649.28,527.00 C648.88,527.00 645.96,529.57 642.78,532.71 L 637.01 538.43 L 632.28 533.96 C629.67,531.51 627.17,528.94 626.72,528.25 C625.28,526.06 624.00,526.90 624.00,530.04 C624.00,532.27 625.20,534.37 628.47,537.86 L 632.94 542.64 L 628.47 547.03 C624.86,550.57 624.00,552.09 624.00,554.93 ZM 979.54 295.31 L 980.20 297.93 L 984.60 294.25 C987.02,292.23 989.00,290.21 989.00,289.76 C989.00,289.31 989.67,288.68 990.49,288.36 C991.41,288.01 994.28,289.78 997.88,292.90 C1001.12,295.70 1004.05,298.00 1004.39,298.00 C1004.72,298.00 1005.00,296.78 1005.00,295.28 C1005.00,293.39 1003.57,291.12 1000.29,287.78 L 995.58 283.00 L 1000.29 278.22 C1003.57,274.88 1005.00,272.61 1005.00,270.72 C1005.00,269.22 1004.68,268.00 1004.28,268.00 C1003.88,268.00 1000.96,270.57 997.78,273.72 L 992.00 279.44 L 986.22 273.72 C983.04,270.57 980.12,268.00 979.72,268.00 C979.32,268.00 979.00,269.40 979.00,271.11 C979.00,273.54 980.04,275.17 983.75,278.57 L 988.49 282.93 L 983.69 287.81 C979.64,291.92 978.99,293.10 979.54,295.31 ZM 979.53 260.81 C979.22,262.56 979.30,264.00 979.71,264.00 C980.11,264.00 983.04,261.43 986.22,258.28 L 992.00 252.56 L 997.78 258.28 C1000.96,261.43 1003.88,264.00 1004.28,264.00 C1004.68,264.00 1005.00,262.78 1005.00,261.28 C1005.00,259.39 1003.58,257.13 1000.33,253.82 L 995.65 249.08 L 1000.33 244.08 C1003.77,240.40 1005.00,238.29 1005.00,236.04 C1005.00,234.37 1004.65,233.00 1004.22,233.00 C1003.78,233.00 1000.99,235.48 998.00,238.50 C995.01,241.52 992.09,244.00 991.50,244.00 C990.91,244.00 988.21,241.75 985.50,239.00 C982.79,236.25 980.22,234.00 979.79,234.00 C979.35,234.00 979.00,235.22 979.00,236.72 C979.00,238.60 980.41,240.86 983.61,244.12 L 988.23 248.80 L 984.16 253.21 C981.90,255.66 979.85,259.04 979.53,260.81 ZM 624.00 260.79 L 624.00 264.17 L 630.55 258.42 L 637.10 252.66 L 643.03 258.53 C646.28,261.75 649.23,264.11 649.57,263.76 C651.00,262.33 648.64,257.05 644.96,253.46 C642.78,251.33 641.00,249.12 641.01,248.55 C641.01,247.97 643.04,245.51 645.51,243.09 C648.74,239.91 650.00,237.88 650.00,235.84 C650.00,234.28 649.67,233.00 649.28,233.00 C648.88,233.00 645.83,235.70 642.50,239.00 L 636.44 245.01 L 631.00 239.50 C628.01,236.48 625.22,234.00 624.78,234.00 C624.35,234.00 624.00,235.22 624.00,236.72 C624.00,238.59 625.39,240.85 628.50,244.00 L 633.01 248.58 L 628.50 253.00 C624.93,256.51 624.00,258.11 624.00,260.79 ZM 979.00 520.28 C979.00,521.78 979.32,523.00 979.72,523.00 C980.12,523.00 983.04,520.43 986.22,517.28 L 992.00 511.56 L 997.78 517.28 C1000.96,520.43 1003.88,523.00 1004.28,523.00 C1004.68,523.00 1005.00,521.81 1005.00,520.35 C1005.00,518.59 1003.47,516.07 1000.41,512.80 L 995.82 507.90 L 1000.41 502.99 C1003.37,499.82 1005.00,497.18 1005.00,495.54 C1005.00,494.14 1004.62,493.00 1004.15,493.00 C1003.68,493.00 1000.87,495.47 997.90,498.49 L 992.49 503.98 L 986.50 498.51 C983.20,495.50 980.16,493.02 979.75,493.02 C979.34,493.01 979.00,494.22 979.00,495.72 C979.00,497.61 980.43,499.88 983.71,503.22 L 988.42 508.00 L 983.71 512.78 C980.43,516.12 979.00,518.39 979.00,520.28 ZM 624.00 294.58 C624.00,296.46 624.32,298.00 624.72,298.00 C625.12,298.00 628.01,295.46 631.15,292.35 L 636.86 286.70 L 642.68 292.39 L 648.50 298.08 L 648.82 294.90 C649.09,292.29 648.39,290.95 644.86,287.36 L 640.58 283.00 L 645.29 278.21 C648.57,274.88 650.00,272.61 650.00,270.72 C650.00,269.22 649.68,268.00 649.28,268.00 C648.88,268.00 645.96,270.57 642.78,273.72 L 637.00 279.44 L 631.22 273.72 C628.04,270.57 625.12,268.00 624.72,268.00 C624.32,268.00 624.00,269.22 624.00,270.72 C624.00,272.61 625.42,274.87 628.68,278.18 L 633.36 282.93 L 628.68 287.05 C624.82,290.44 624.00,291.77 624.00,294.58 ZM 979.00 226.28 C979.00,227.78 979.32,229.00 979.72,229.00 C980.12,229.00 983.04,226.43 986.22,223.28 L 992.00 217.56 L 997.78 223.28 C1000.96,226.43 1003.88,229.00 1004.28,229.00 C1004.68,229.00 1005.00,227.78 1005.00,226.28 C1005.00,224.39 1003.57,222.12 1000.29,218.78 L 995.58 214.00 L 1000.29 209.22 C1003.57,205.88 1005.00,203.61 1005.00,201.72 C1005.00,200.22 1004.70,199.00 1004.34,199.00 C1003.98,199.00 1001.02,201.54 997.76,204.64 L 991.85 210.29 L 986.14 204.64 C983.01,201.54 980.12,199.00 979.72,199.00 C979.32,199.00 979.00,200.22 979.00,201.72 C979.00,203.61 980.43,205.88 983.71,209.22 L 988.42 214.00 L 983.71 218.78 C980.43,222.12 979.00,224.39 979.00,226.28 ZM 979.50 484.95 C979.40,486.63 979.57,488.00 979.88,488.00 C980.19,488.00 983.04,485.43 986.22,482.28 L 992.00 476.56 L 997.78 482.28 C1000.96,485.43 1003.88,488.00 1004.28,488.00 C1004.68,488.00 1005.00,486.78 1005.00,485.28 C1005.00,483.39 1003.57,481.12 1000.29,477.78 L 995.58 473.00 L 1000.29 468.22 C1003.57,464.88 1005.00,462.61 1005.00,460.72 C1005.00,459.22 1004.68,458.00 1004.28,458.00 C1003.88,458.00 1000.96,460.57 997.78,463.72 L 992.00 469.44 L 986.22 463.72 C983.04,460.57 980.12,458.00 979.72,458.00 C979.32,458.00 979.00,459.22 979.00,460.72 C979.00,462.61 980.43,464.88 983.71,468.21 L 988.42 473.00 L 984.05 477.45 C981.03,480.52 979.63,482.84 979.50,484.95 ZM 624.00 587.14 C624.00,587.61 625.22,588.00 626.71,588.00 C628.48,588.00 630.72,586.73 633.19,584.32 L 636.96 580.63 L 640.65 584.32 C644.06,587.72 647.69,588.97 649.36,587.31 C649.74,586.93 647.92,584.45 645.31,581.81 L 640.58 577.00 L 645.29 572.22 C648.94,568.51 650.00,566.70 650.00,564.22 C650.00,562.45 649.61,561.00 649.13,561.00 C648.65,561.00 645.68,563.76 642.54,567.13 L 636.82 573.26 L 631.13 567.63 C628.00,564.53 625.12,562.00 624.72,562.00 C624.32,562.00 624.00,563.22 624.00,564.72 C624.00,566.59 625.39,568.85 628.51,572.01 L 633.02 576.59 L 628.51 581.43 C626.03,584.10 624.00,586.67 624.00,587.14 ZM 780.00 363.00 C780.00,364.65 780.32,366.00 780.72,366.00 C781.11,366.00 783.58,363.88 786.22,361.29 L 791.00 356.58 L 795.78 361.29 C798.42,363.88 800.89,366.00 801.28,366.00 C801.68,366.00 802.00,364.68 802.00,363.06 C802.00,361.09 800.85,358.85 798.53,356.32 L 795.05 352.53 L 798.53 348.97 C800.76,346.69 802.00,344.45 802.00,342.71 C802.00,341.22 801.63,340.00 801.18,340.00 C800.73,340.00 798.30,341.97 795.78,344.39 L 791.20 348.77 L 786.39 343.89 C783.74,341.20 781.22,339.00 780.79,339.00 C780.35,339.00 780.00,340.49 780.00,342.30 C780.00,344.76 780.89,346.47 783.47,348.97 L 786.94 352.33 L 783.47 356.17 C781.14,358.75 780.00,360.99 780.00,363.00 ZM 780.01 432.25 C780.01,433.76 780.32,435.00 780.72,435.00 C781.11,435.00 783.58,432.88 786.22,430.29 L 791.00 425.58 L 795.78 430.29 C798.42,432.88 800.89,435.00 801.28,435.00 C801.68,435.00 802.00,433.78 802.00,432.29 C802.00,430.53 800.73,428.29 798.36,425.86 L 794.73 422.14 L 798.36 417.89 C800.68,415.18 802.00,412.62 802.00,410.82 C802.00,408.24 800.65,406.96 799.82,408.75 C799.62,409.16 797.56,411.28 795.23,413.46 L 790.99 417.42 L 786.21 412.71 C783.58,410.12 781.11,408.00 780.72,408.00 C778.74,408.00 780.36,413.73 783.38,417.42 L 786.76 421.54 L 783.39 425.52 C781.37,427.91 780.02,430.60 780.01,432.25 ZM 795.25 498.78 C797.57,501.10 799.81,503.00 800.24,503.00 C800.66,503.00 801.00,501.51 801.00,499.69 C801.00,497.31 800.15,495.56 797.99,493.49 L 794.98 490.61 L 798.49 487.01 C801.03,484.41 802.00,482.53 802.00,480.21 C802.00,478.44 801.68,477.00 801.28,477.00 C800.89,477.00 798.45,479.09 795.86,481.64 L 791.15 486.28 L 780.50 476.95 L 780.18 480.11 C779.92,482.62 780.59,484.02 783.44,486.94 L 787.02 490.61 L 784.01 493.49 C782.06,495.36 781.00,497.36 781.00,499.19 C781.00,502.97 782.67,502.73 787.22,498.28 L 791.03 494.56 ZM 780.00 328.79 C780.00,330.56 780.14,332.00 780.32,332.00 C780.50,332.00 782.76,329.98 785.34,327.50 C787.92,325.02 790.61,323.00 791.31,323.00 C792.02,323.00 794.35,324.80 796.50,327.00 C801.11,331.72 802.00,331.93 802.00,328.29 C802.00,326.52 800.72,324.28 798.30,321.79 L 794.59 318.00 L 798.30 314.21 C800.72,311.72 802.00,309.48 802.00,307.71 C802.00,304.07 801.11,304.28 796.50,309.00 C794.35,311.20 791.88,313.00 791.00,313.00 C790.12,313.00 787.65,311.20 785.50,309.00 C780.92,304.30 780.00,304.08 780.00,307.63 C780.00,309.24 781.39,311.80 783.60,314.24 L 787.19 318.22 L 783.60 321.90 C780.98,324.58 780.00,326.46 780.00,328.79 ZM 979.00 555.21 C979.00,556.74 979.35,558.00 979.78,558.00 C980.22,558.00 983.02,555.51 986.03,552.47 C990.62,547.82 991.90,547.04 994.12,547.53 C997.06,548.17 998.83,545.70 997.00,543.50 C996.24,542.59 997.17,540.91 1000.48,537.23 C1003.40,533.99 1005.00,531.28 1005.00,529.60 C1005.00,528.17 1004.68,527.00 1004.28,527.00 C1003.88,527.00 1000.96,529.57 997.78,532.72 L 992.00 538.44 L 986.22 532.72 C983.04,529.57 980.12,527.00 979.72,527.00 C979.32,527.00 979.00,528.26 979.00,529.79 C979.00,531.78 980.30,533.86 983.50,537.00 C985.97,539.43 988.00,541.90 988.00,542.50 C988.00,543.10 985.97,545.57 983.50,548.00 C980.30,551.14 979.00,553.22 979.00,555.21 ZM 780.00 466.29 C780.00,467.78 780.32,469.00 780.72,469.00 C781.11,469.00 783.58,466.88 786.22,464.29 L 791.00 459.58 L 795.78 464.29 C798.42,466.88 800.89,469.00 801.28,469.00 C801.68,469.00 802.00,467.78 802.00,466.29 C802.00,464.52 800.72,462.28 798.30,459.79 L 794.59 456.00 L 798.30 452.21 C800.72,449.72 802.00,447.48 802.00,445.71 C802.00,441.89 800.63,442.31 795.47,447.70 L 790.97 452.39 L 786.20 447.70 C783.58,445.11 781.11,443.00 780.72,443.00 C780.32,443.00 780.00,444.22 780.00,445.71 C780.00,447.48 781.28,449.72 783.70,452.21 L 787.41 456.00 L 783.70 459.79 C781.28,462.28 780.00,464.52 780.00,466.29 ZM 780.00 286.01 L 780.00 289.43 L 785.50 284.00 L 791.00 278.57 L 795.78 283.29 C798.41,285.88 800.89,288.00 801.28,288.00 C801.68,288.00 802.00,286.78 802.00,285.29 C802.00,283.52 800.72,281.28 798.30,278.79 L 794.59 275.00 L 798.30 271.21 C800.72,268.72 802.00,266.48 802.00,264.71 C802.00,263.22 801.68,262.00 801.28,262.00 C800.89,262.00 798.42,264.12 795.78,266.71 L 791.00 271.42 L 786.22 266.71 C783.58,264.12 781.11,262.00 780.72,262.00 C780.32,262.00 780.00,263.22 780.00,264.71 C780.00,266.48 781.28,268.72 783.70,271.21 L 787.41 275.00 L 783.70 278.79 C780.89,281.67 780.00,283.41 780.00,286.01 ZM 780.00 397.29 C780.00,398.78 780.32,400.00 780.72,400.00 C781.11,400.00 783.57,397.89 786.18,395.32 L 790.94 390.64 L 795.69 395.32 C798.30,397.89 800.79,400.00 801.22,400.00 C801.65,400.00 802.00,398.78 802.00,397.29 C802.00,395.52 800.72,393.28 798.30,390.79 L 794.59 387.00 L 798.30 383.21 C800.72,380.72 802.00,378.48 802.00,376.71 C802.00,375.22 801.68,374.00 801.28,374.00 C800.89,374.00 798.42,376.12 795.78,378.71 L 791.00 383.42 L 786.22 378.71 C783.58,376.12 781.11,374.00 780.72,374.00 C780.32,374.00 780.00,375.22 780.00,376.71 C780.00,378.48 781.28,380.72 783.70,383.21 L 787.41 387.00 L 783.70 390.79 C781.28,393.28 780.00,395.52 780.00,397.29 ZM 442.96 464.52 L 448.91 470.50 L 440.45 479.32 C435.80,484.18 431.98,487.89 431.96,487.57 C431.94,487.26 431.91,481.75 431.89,475.34 C431.86,464.13 431.95,463.59 434.43,461.11 L 437.01 458.53 ZM 443.45 312.21 C440.18,315.67 437.25,318.62 436.94,318.77 C436.64,318.92 435.40,317.99 434.19,316.70 C432.31,314.70 432.00,313.23 432.00,306.36 C432.00,299.08 432.23,298.13 434.53,295.97 L 437.07 293.59 L 443.23 299.75 L 449.39 305.91 ZM 443.42 378.08 C440.20,381.34 437.32,383.99 437.03,383.97 C436.74,383.95 435.49,383.09 434.25,382.06 C432.26,380.40 432.00,379.25 432.00,372.26 C432.00,365.28 432.27,364.09 434.31,362.17 C435.59,360.98 437.09,360.00 437.66,360.00 C438.23,360.00 441.08,362.74 443.99,366.08 L 449.28 372.16 ZM 443.23 431.75 L 449.40 437.92 L 437.23 450.59 L 434.61 448.34 C432.21,446.27 432.00,445.47 432.00,438.22 C432.00,431.09 432.24,430.12 434.53,427.97 L 437.07 425.59 ZM 443.51 410.99 C440.24,414.30 437.29,417.00 436.96,417.00 C436.62,417.00 435.37,415.96 434.17,414.69 C432.34,412.73 432.00,411.20 432.00,404.86 C432.00,398.11 432.26,397.11 434.53,394.97 L 437.07 392.59 L 443.26 398.78 L 449.46 404.98 ZM 443.51 344.99 C440.24,348.30 437.29,351.00 436.96,351.00 C436.62,351.00 435.37,349.96 434.17,348.69 C432.34,346.73 432.00,345.20 432.00,338.86 C432.00,332.11 432.26,331.11 434.53,328.97 L 437.07 326.59 L 443.26 332.78 L 449.46 338.98 ZM 726.00 236.32 C726.00,236.75 729.04,236.96 732.75,236.80 L 739.50 236.50 L 739.80 230.25 C740.02,225.57 739.76,224.00 738.77,224.00 C737.38,224.00 726.00,234.99 726.00,236.32 ZM 732.00 525.50 C735.54,529.08 738.79,532.00 739.22,532.00 C739.65,532.00 740.00,529.08 740.00,525.50 L 740.00 519.00 L 725.56 519.00 ZM 451.00 453.79 C451.00,458.85 450.64,463.00 450.21,463.00 C449.77,463.00 447.52,461.07 445.21,458.71 L 441.00 454.42 L 451.00 444.58 ZM 451.00 322.50 C451.00,327.17 450.64,331.00 450.21,331.00 C449.77,331.00 447.52,329.07 445.21,326.71 L 441.00 322.42 L 445.29 318.21 C447.65,315.89 449.90,314.00 450.29,314.00 C450.68,314.00 451.00,317.83 451.00,322.50 ZM 451.00 388.50 C451.00,393.17 450.64,397.00 450.21,397.00 C449.77,397.00 447.52,395.07 445.21,392.71 L 441.00 388.42 L 445.29 384.21 C447.65,381.89 449.90,380.00 450.29,380.00 C450.68,380.00 451.00,383.83 451.00,388.50 ZM 451.00 421.50 C451.00,426.17 450.64,430.00 450.21,430.00 C449.77,430.00 447.52,428.07 445.21,425.71 L 441.00 421.42 L 445.29 417.21 C447.65,414.89 449.90,413.00 450.29,413.00 C450.68,413.00 451.00,416.83 451.00,421.50 ZM 382.00 236.33 C382.00,236.75 384.81,236.96 388.25,236.80 L 394.50 236.50 L 394.80 230.25 C394.96,226.81 394.72,224.00 394.27,224.00 C393.23,224.00 382.00,235.28 382.00,236.33 ZM 450.52 347.19 C450.83,347.50 450.95,351.65 450.79,356.42 L 450.50 365.09 L 445.75 360.25 L 440.99 355.42 L 445.48 351.02 C447.94,348.60 450.21,346.88 450.52,347.19 ZM 451.00 289.50 C451.00,294.17 450.66,298.00 450.25,298.00 C449.84,298.00 447.59,296.31 445.24,294.25 L 440.99 290.50 L 445.55 285.75 C448.06,283.14 450.31,281.00 450.55,281.00 C450.80,281.00 451.00,284.83 451.00,289.50 ZM 387.50 525.00 C390.77,528.30 393.79,531.00 394.22,531.00 C394.65,531.00 395.00,528.30 395.00,525.00 L 395.00 519.00 L 381.56 519.00 Z" fill="rgb(17,93,159)"/>
<path d="M 433.00 455.06 C433.00,455.58 432.55,456.00 432.00,456.00 C431.45,456.00 431.00,455.30 431.00,454.44 C431.00,453.58 431.45,453.16 432.00,453.50 C432.55,453.84 433.00,454.54 433.00,455.06 Z" fill="rgb(93,134,165)"/>
<path d="M 0.00 378.00 L 0.00 0.00 L 156.00 0.00 L 312.00 0.00 L 312.00 378.00 L 312.00 756.00 L 156.00 756.00 L 0.00 756.00 L 0.00 378.00 ZM 1075.00 378.00 L 1075.00 0.00 L 1231.00 0.00 L 1387.00 0.00 L 1387.00 378.00 L 1387.00 756.00 L 1231.00 756.00 L 1075.00 756.00 L 1075.00 378.00 ZM 422.00 378.50 L 422.00 169.00 L 544.53 169.00 L 667.06 169.00 L 666.78 181.25 L 666.50 193.50 L 549.25 193.75 L 432.00 194.01 L 432.00 237.45 L 432.00 280.89 L 434.36 283.63 L 436.72 286.38 L 443.86 279.14 L 451.00 271.90 L 451.00 262.95 L 451.00 254.00 L 456.50 254.00 L 462.00 254.00 L 462.00 378.00 L 462.00 502.00 L 456.50 502.00 L 451.00 502.00 L 451.00 490.00 C451.00,483.40 450.63,478.00 450.18,478.00 C449.73,478.00 445.45,482.12 440.68,487.15 L 432.00 496.31 L 432.00 534.15 L 432.00 572.00 L 519.00 572.00 L 606.00 572.00 L 606.00 552.51 L 606.00 533.01 L 521.75 532.76 L 437.50 532.50 L 437.45 520.25 L 437.39 508.00 L 521.70 508.00 L 606.00 508.00 L 606.00 483.00 L 606.00 458.00 L 612.00 458.00 L 618.00 458.00 L 618.12 500.25 C618.25,541.75 618.23,567.88 618.08,581.25 L 618.00 588.00 L 520.00 588.00 L 422.00 588.00 L 422.00 378.50 ZM 442.96 464.52 L 437.01 458.53 L 434.43 461.11 C431.95,463.59 431.86,464.13 431.89,475.34 C431.91,481.75 431.94,487.26 431.96,487.57 C431.98,487.89 435.80,484.18 440.45,479.32 L 448.91 470.50 L 442.96 464.52 ZM 451.00 453.79 L 451.00 444.58 L 446.00 449.50 L 441.00 454.42 L 445.21 458.71 C447.52,461.07 449.77,463.00 450.21,463.00 C450.64,463.00 451.00,458.85 451.00,453.79 ZM 433.00 455.06 C433.00,454.54 432.55,453.84 432.00,453.50 C431.45,453.16 431.00,453.58 431.00,454.44 C431.00,455.30 431.45,456.00 432.00,456.00 C432.55,456.00 433.00,455.58 433.00,455.06 ZM 443.23 431.75 L 437.07 425.59 L 434.53 427.97 C432.24,430.12 432.00,431.09 432.00,438.22 C432.00,445.47 432.21,446.27 434.61,448.34 L 437.23 450.59 L 443.31 444.25 L 449.40 437.92 L 443.23 431.75 ZM 451.00 421.50 C451.00,416.83 450.68,413.00 450.29,413.00 C449.90,413.00 447.65,414.89 445.29,417.21 L 441.00 421.42 L 445.21 425.71 C447.52,428.07 449.77,430.00 450.21,430.00 C450.64,430.00 451.00,426.17 451.00,421.50 ZM 443.51 410.99 L 449.46 404.98 L 443.26 398.78 L 437.07 392.59 L 434.53 394.97 C432.26,397.11 432.00,398.11 432.00,404.86 C432.00,411.20 432.34,412.73 434.17,414.69 C435.37,415.96 436.62,417.00 436.96,417.00 C437.29,417.00 440.24,414.30 443.51,410.99 ZM 451.00 388.50 C451.00,383.83 450.68,380.00 450.29,380.00 C449.90,380.00 447.65,381.89 445.29,384.21 L 441.00 388.42 L 445.21 392.71 C447.52,395.07 449.77,397.00 450.21,397.00 C450.64,397.00 451.00,393.17 451.00,388.50 ZM 443.42 378.08 L 449.28 372.16 L 443.99 366.08 C441.08,362.74 438.23,360.00 437.66,360.00 C437.09,360.00 435.59,360.98 434.31,362.17 C432.27,364.09 432.00,365.28 432.00,372.26 C432.00,379.25 432.26,380.40 434.25,382.06 C435.49,383.09 436.74,383.95 437.03,383.97 C437.32,383.99 440.20,381.34 443.42,378.08 ZM 450.52 347.19 C450.21,346.88 447.94,348.60 445.48,351.02 L 440.99 355.42 L 445.75 360.25 L 450.50 365.09 L 450.79 356.42 C450.95,351.65 450.83,347.50 450.52,347.19 ZM 443.51 344.99 L 449.46 338.98 L 443.26 332.78 L 437.07 326.59 L 434.53 328.97 C432.26,331.11 432.00,332.11 432.00,338.86 C432.00,345.20 432.34,346.73 434.17,348.69 C435.37,349.96 436.62,351.00 436.96,351.00 C437.29,351.00 440.24,348.30 443.51,344.99 ZM 451.00 322.50 C451.00,317.83 450.68,314.00 450.29,314.00 C449.90,314.00 447.65,315.89 445.29,318.21 L 441.00 322.42 L 445.21 326.71 C447.52,329.07 449.77,331.00 450.21,331.00 C450.64,331.00 451.00,327.17 451.00,322.50 ZM 443.45 312.21 L 449.39 305.91 L 443.23 299.75 L 437.07 293.59 L 434.53 295.97 C432.23,298.13 432.00,299.08 432.00,306.36 C432.00,313.23 432.31,314.70 434.19,316.70 C435.40,317.99 436.64,318.92 436.94,318.77 C437.25,318.62 440.18,315.67 443.45,312.21 ZM 451.00 289.50 C451.00,284.83 450.80,281.00 450.55,281.00 C450.31,281.00 448.06,283.14 445.55,285.75 L 440.99 290.50 L 445.24 294.25 C447.59,296.31 449.84,298.00 450.25,298.00 C450.66,298.00 451.00,294.17 451.00,289.50 ZM 624.00 587.14 C624.00,586.67 626.03,584.10 628.51,581.43 L 633.02 576.59 L 628.51 572.01 C625.39,568.85 624.00,566.59 624.00,564.72 C624.00,563.22 624.32,562.00 624.72,562.00 C625.12,562.00 628.00,564.53 631.13,567.63 L 636.82 573.26 L 642.54 567.13 C645.68,563.76 648.65,561.00 649.13,561.00 C649.61,561.00 650.00,562.45 650.00,564.22 C650.00,566.70 648.94,568.51 645.29,572.22 L 640.58 577.00 L 645.31 581.81 C647.92,584.45 649.74,586.93 649.36,587.31 C647.69,588.97 644.06,587.72 640.65,584.32 L 636.96 580.63 L 633.19 584.32 C630.72,586.73 628.48,588.00 626.71,588.00 C625.22,588.00 624.00,587.61 624.00,587.14 ZM 655.71 587.38 C655.32,586.99 655.00,557.72 655.00,522.33 L 655.00 458.00 L 661.01 458.00 L 667.01 458.00 L 666.76 522.75 L 666.50 587.50 L 661.46 587.79 C658.69,587.96 656.10,587.77 655.71,587.38 ZM 766.67 587.33 C766.30,586.97 766.00,510.15 766.00,416.62 L 766.00 246.58 L 770.21 242.29 C772.52,239.93 774.79,238.00 775.26,238.00 C775.72,238.00 776.03,304.71 775.95,386.25 C775.87,467.79 775.85,542.94 775.90,553.25 L 776.00 572.00 L 868.48 572.00 L 960.96 572.00 L 961.52 569.75 C961.82,568.51 961.94,559.85 961.79,550.50 L 961.50 533.50 L 871.25 533.24 L 781.00 532.99 L 781.00 520.50 L 781.00 508.01 L 871.25 507.76 L 961.50 507.50 L 961.77 482.75 L 962.03 458.00 L 967.80 458.00 L 973.57 458.00 L 973.45 520.25 C973.38,554.49 973.25,583.74 973.16,585.25 L 973.00 588.00 L 870.17 588.00 C813.61,588.00 767.03,587.70 766.67,587.33 ZM 979.67 587.33 C979.30,586.97 979.00,583.47 979.00,579.57 L 979.00 572.48 L 995.00 556.50 L 1011.00 540.52 L 1011.00 499.26 L 1011.00 458.00 L 1017.00 458.00 L 1023.00 458.00 L 1023.00 504.19 L 1023.00 550.38 L 1004.28 569.19 C989.50,584.05 985.02,588.00 982.95,588.00 C981.51,588.00 980.03,587.70 979.67,587.33 ZM 731.03 556.25 L 703.02 526.50 L 703.01 375.84 L 703.00 225.18 L 731.75 197.10 L 760.50 169.03 L 773.49 169.02 L 786.47 169.00 L 773.74 181.76 L 761.00 194.53 L 761.00 390.26 C761.00,516.50 760.65,586.00 760.03,586.00 C759.49,586.00 746.45,572.61 731.03,556.25 ZM 745.00 377.50 C745.00,285.38 744.67,210.00 744.26,210.00 C743.86,210.00 737.78,215.73 730.76,222.74 L 718.00 235.47 L 718.00 377.01 L 718.00 518.54 L 730.58 531.77 C737.50,539.05 743.58,545.00 744.08,545.00 C744.64,545.00 745.00,478.47 745.00,377.50 ZM 397.90 567.75 C388.89,558.26 376.46,545.27 370.26,538.87 L 359.00 527.24 L 359.00 376.20 L 359.00 225.16 L 386.53 198.33 C401.67,183.57 414.50,171.35 415.03,171.17 C415.65,170.95 416.00,244.46 416.00,377.92 C416.00,494.26 415.62,585.00 415.13,585.00 C414.66,585.00 406.90,577.24 397.90,567.75 ZM 401.00 377.50 C401.00,285.38 400.64,210.00 400.20,210.00 C399.75,210.00 393.68,215.51 386.70,222.25 L 374.00 234.51 L 374.00 376.52 L 374.00 518.54 L 386.58 531.77 C393.50,539.05 399.58,545.00 400.08,545.00 C400.64,545.00 401.00,478.47 401.00,377.50 ZM 446.50 558.00 L 454.45 550.00 L 527.73 550.00 L 601.00 550.00 L 601.00 558.00 L 601.00 566.00 L 519.77 566.00 L 438.55 566.00 L 446.50 558.00 ZM 783.00 565.57 C783.00,565.33 786.33,561.73 790.40,557.57 L 797.80 550.00 L 876.90 550.00 L 956.00 550.00 L 956.00 558.00 L 956.00 566.00 L 869.50 566.00 C821.92,566.00 783.00,565.81 783.00,565.57 ZM 624.00 554.93 C624.00,552.09 624.86,550.57 628.47,547.03 L 632.94 542.64 L 628.47 537.86 C625.20,534.37 624.00,532.27 624.00,530.04 C624.00,526.90 625.28,526.06 626.72,528.25 C627.17,528.94 629.67,531.51 632.28,533.96 L 637.01 538.43 L 642.78 532.71 C645.96,529.57 648.88,527.00 649.28,527.00 C649.68,527.00 650.00,528.25 650.00,529.79 C650.00,531.81 648.63,533.93 645.00,537.50 L 639.99 542.43 L 645.00 547.50 C648.53,551.08 650.00,553.36 650.00,555.28 C650.00,556.78 649.65,558.00 649.22,558.00 C648.78,558.00 645.99,555.53 643.00,552.50 C640.01,549.47 637.12,547.00 636.56,547.00 C636.01,547.00 632.96,549.57 629.78,552.72 L 624.00 558.44 L 624.00 554.93 ZM 979.00 555.21 C979.00,553.22 980.30,551.14 983.50,548.00 C985.97,545.57 988.00,543.10 988.00,542.50 C988.00,541.90 985.97,539.43 983.50,537.00 C980.30,533.86 979.00,531.78 979.00,529.79 C979.00,528.26 979.32,527.00 979.72,527.00 C980.12,527.00 983.04,529.57 986.22,532.72 L 992.00 538.44 L 997.78 532.72 C1000.96,529.57 1003.88,527.00 1004.28,527.00 C1004.68,527.00 1005.00,528.17 1005.00,529.60 C1005.00,531.28 1003.40,533.99 1000.48,537.23 C997.17,540.91 996.24,542.59 997.00,543.50 C998.83,545.70 997.06,548.17 994.12,547.53 C991.90,547.04 990.62,547.82 986.03,552.47 C983.02,555.51 980.22,558.00 979.78,558.00 C979.35,558.00 979.00,556.74 979.00,555.21 ZM 624.00 520.43 C624.00,516.99 624.65,515.78 628.50,512.00 L 633.01 507.58 L 628.50 503.00 C625.39,499.85 624.00,497.59 624.00,495.72 C624.00,494.22 624.35,493.00 624.78,493.00 C625.22,493.00 628.01,495.48 631.00,498.50 L 636.44 504.01 L 642.50 498.00 C645.83,494.70 648.88,492.00 649.28,492.00 C649.67,492.00 650.00,493.30 650.00,494.89 C650.00,496.92 648.62,499.32 645.35,502.96 L 640.70 508.13 L 645.35 512.85 C648.58,516.13 650.00,518.40 650.00,520.28 C650.00,521.78 649.68,523.00 649.28,523.00 C648.88,523.00 645.96,520.43 642.78,517.28 L 637.00 511.56 L 630.50 518.00 L 624.00 524.44 L 624.00 520.43 ZM 979.00 520.28 C979.00,518.39 980.43,516.12 983.71,512.78 L 988.42 508.00 L 983.71 503.22 C980.43,499.88 979.00,497.61 979.00,495.72 C979.00,494.22 979.34,493.01 979.75,493.02 C980.16,493.02 983.20,495.50 986.50,498.51 L 992.49 503.98 L 997.90 498.49 C1000.87,495.47 1003.68,493.00 1004.15,493.00 C1004.62,493.00 1005.00,494.14 1005.00,495.54 C1005.00,497.18 1003.37,499.82 1000.41,502.99 L 995.82 507.90 L 1000.41 512.80 C1003.47,516.07 1005.00,518.59 1005.00,520.35 C1005.00,521.81 1004.68,523.00 1004.28,523.00 C1003.88,523.00 1000.96,520.43 997.78,517.28 L 992.00 511.56 L 986.22 517.28 C983.04,520.43 980.12,523.00 979.72,523.00 C979.32,523.00 979.00,521.78 979.00,520.28 ZM 587.75 502.42 C587.34,502.01 587.00,491.84 587.00,479.83 L 587.00 458.00 L 594.00 458.00 L 601.00 458.00 L 601.00 480.00 L 601.00 502.00 L 598.25 502.01 C596.74,502.02 593.92,502.28 592.00,502.60 C590.08,502.92 588.16,502.84 587.75,502.42 ZM 795.25 498.78 L 791.03 494.56 L 787.22 498.28 C782.67,502.73 781.00,502.97 781.00,499.19 C781.00,497.36 782.06,495.36 784.01,493.49 L 787.02 490.61 L 783.44 486.94 C780.59,484.02 779.92,482.62 780.18,480.11 L 780.50 476.95 L 785.82 481.61 L 791.15 486.28 L 795.86 481.64 C798.45,479.09 800.89,477.00 801.28,477.00 C801.68,477.00 802.00,478.44 802.00,480.21 C802.00,482.53 801.03,484.41 798.49,487.01 L 794.98 490.61 L 797.99 493.49 C800.15,495.56 801.00,497.31 801.00,499.69 C801.00,501.51 800.66,503.00 800.24,503.00 C799.81,503.00 797.57,501.10 795.25,498.78 ZM 807.71 502.38 C807.32,501.99 807.00,445.94 807.00,377.83 L 807.00 254.00 L 811.00 254.00 L 815.01 254.00 L 814.75 378.25 L 814.50 502.50 L 811.46 502.80 C809.79,502.96 808.11,502.77 807.71,502.38 ZM 942.00 480.00 L 942.00 458.00 L 949.00 458.00 L 956.00 458.00 L 956.00 480.00 L 956.00 502.00 L 949.00 502.00 L 942.00 502.00 L 942.00 480.00 ZM 624.00 485.92 C624.00,483.14 624.83,481.59 628.00,478.50 C630.20,476.35 632.00,474.10 632.00,473.50 C632.00,472.90 630.20,470.65 628.00,468.50 C624.93,465.50 624.00,463.83 624.00,461.30 C624.00,459.48 624.35,458.00 624.78,458.00 C625.22,458.00 627.99,460.45 630.94,463.44 L 636.31 468.88 L 642.41 463.44 C645.76,460.46 648.84,458.01 649.25,458.00 C649.66,458.00 650.00,459.26 650.00,460.79 C650.00,462.78 648.70,464.86 645.50,468.00 C643.03,470.43 641.00,472.75 641.00,473.15 C641.00,473.55 643.03,475.94 645.50,478.45 C648.82,481.81 650.00,483.80 650.00,486.01 C650.00,487.65 649.65,489.00 649.22,489.00 C648.78,489.00 645.99,486.52 643.00,483.50 C640.01,480.48 637.12,478.00 636.56,478.00 C636.01,478.00 632.96,480.57 629.78,483.72 L 624.00 489.44 L 624.00 485.92 ZM 979.50 484.95 C979.63,482.84 981.03,480.52 984.05,477.45 L 988.42 473.00 L 983.71 468.21 C980.43,464.88 979.00,462.61 979.00,460.72 C979.00,459.22 979.32,458.00 979.72,458.00 C980.12,458.00 983.04,460.57 986.22,463.72 L 992.00 469.44 L 997.78 463.72 C1000.96,460.57 1003.88,458.00 1004.28,458.00 C1004.68,458.00 1005.00,459.22 1005.00,460.72 C1005.00,462.61 1003.57,464.88 1000.29,468.22 L 995.58 473.00 L 1000.29 477.78 C1003.57,481.12 1005.00,483.39 1005.00,485.28 C1005.00,486.78 1004.68,488.00 1004.28,488.00 C1003.88,488.00 1000.96,485.43 997.78,482.28 L 992.00 476.56 L 986.22 482.28 C983.04,485.43 980.19,488.00 979.88,488.00 C979.57,488.00 979.40,486.63 979.50,484.95 ZM 780.00 466.29 C780.00,464.52 781.28,462.28 783.70,459.79 L 787.41 456.00 L 783.70 452.21 C781.28,449.72 780.00,447.48 780.00,445.71 C780.00,444.22 780.32,443.00 780.72,443.00 C781.11,443.00 783.58,445.11 786.20,447.70 L 790.97 452.39 L 795.47 447.70 C800.63,442.31 802.00,441.89 802.00,445.71 C802.00,447.48 800.72,449.72 798.30,452.21 L 794.59 456.00 L 798.30 459.79 C800.72,462.28 802.00,464.52 802.00,466.29 C802.00,467.78 801.68,469.00 801.28,469.00 C800.89,469.00 798.42,466.88 795.78,464.29 L 791.00 459.58 L 786.22 464.29 C783.58,466.88 781.11,469.00 780.72,469.00 C780.32,469.00 780.00,467.78 780.00,466.29 ZM 581.00 444.50 L 581.00 437.00 L 627.50 437.00 L 674.00 437.00 L 674.00 444.50 L 674.00 452.00 L 627.50 452.00 L 581.00 452.00 L 581.00 444.50 ZM 935.00 444.50 L 935.00 437.00 L 982.00 437.00 L 1029.00 437.00 L 1029.00 444.50 L 1029.00 452.00 L 982.00 452.00 L 935.00 452.00 L 935.00 444.50 ZM 780.01 432.25 C780.02,430.60 781.37,427.91 783.39,425.52 L 786.76 421.54 L 783.38 417.42 C780.36,413.73 778.74,408.00 780.72,408.00 C781.11,408.00 783.58,410.12 786.21,412.71 L 790.99 417.42 L 795.23 413.46 C797.56,411.28 799.62,409.16 799.82,408.75 C800.65,406.96 802.00,408.24 802.00,410.82 C802.00,412.62 800.68,415.18 798.36,417.89 L 794.73 422.14 L 798.36 425.86 C800.73,428.29 802.00,430.53 802.00,432.29 C802.00,433.78 801.68,435.00 801.28,435.00 C800.89,435.00 798.42,432.88 795.78,430.29 L 791.00 425.58 L 786.22 430.29 C783.58,432.88 781.11,435.00 780.72,435.00 C780.32,435.00 780.01,433.76 780.01,432.25 ZM 780.00 397.29 C780.00,395.52 781.28,393.28 783.70,390.79 L 787.41 387.00 L 783.70 383.21 C781.28,380.72 780.00,378.48 780.00,376.71 C780.00,375.22 780.32,374.00 780.72,374.00 C781.11,374.00 783.58,376.12 786.22,378.71 L 791.00 383.42 L 795.78 378.71 C798.42,376.12 800.89,374.00 801.28,374.00 C801.68,374.00 802.00,375.22 802.00,376.71 C802.00,378.48 800.72,380.72 798.30,383.21 L 794.59 387.00 L 798.30 390.79 C800.72,393.28 802.00,395.52 802.00,397.29 C802.00,398.78 801.65,400.00 801.22,400.00 C800.79,400.00 798.30,397.89 795.69,395.32 L 790.94 390.64 L 786.18 395.32 C783.57,397.89 781.11,400.00 780.72,400.00 C780.32,400.00 780.00,398.78 780.00,397.29 ZM 780.00 363.00 C780.00,360.99 781.14,358.75 783.47,356.17 L 786.94 352.33 L 783.47 348.97 C780.89,346.47 780.00,344.76 780.00,342.30 C780.00,340.49 780.35,339.00 780.79,339.00 C781.22,339.00 783.74,341.20 786.39,343.89 L 791.20 348.77 L 795.78 344.39 C798.30,341.97 800.73,340.00 801.18,340.00 C801.63,340.00 802.00,341.22 802.00,342.71 C802.00,344.45 800.76,346.69 798.53,348.97 L 795.05 352.53 L 798.53 356.32 C800.85,358.85 802.00,361.09 802.00,363.06 C802.00,364.68 801.68,366.00 801.28,366.00 C800.89,366.00 798.42,363.88 795.78,361.29 L 791.00 356.58 L 786.22 361.29 C783.58,363.88 781.11,366.00 780.72,366.00 C780.32,366.00 780.00,364.65 780.00,363.00 ZM 780.00 328.79 C780.00,326.46 780.98,324.58 783.60,321.90 L 787.19 318.22 L 783.60 314.24 C781.39,311.80 780.00,309.24 780.00,307.63 C780.00,304.08 780.92,304.30 785.50,309.00 C787.65,311.20 790.12,313.00 791.00,313.00 C791.88,313.00 794.35,311.20 796.50,309.00 C801.11,304.28 802.00,304.07 802.00,307.71 C802.00,309.48 800.72,311.72 798.30,314.21 L 794.59 318.00 L 798.30 321.79 C800.72,324.28 802.00,326.52 802.00,328.29 C802.00,331.93 801.11,331.72 796.50,327.00 C794.35,324.80 792.02,323.00 791.31,323.00 C790.61,323.00 787.92,325.02 785.34,327.50 C782.76,329.98 780.50,332.00 780.32,332.00 C780.14,332.00 780.00,330.56 780.00,328.79 ZM 580.68 319.34 C580.30,318.97 580.00,315.37 580.00,311.33 L 580.00 304.00 L 627.04 304.00 L 674.08 304.00 L 673.79 311.75 L 673.50 319.50 L 627.43 319.76 C602.09,319.90 581.05,319.72 580.68,319.34 ZM 935.68 319.34 C935.30,318.97 935.00,315.37 935.00,311.33 L 935.00 304.00 L 982.04 304.00 L 1029.08 304.00 L 1028.79 311.75 L 1028.50 319.50 L 982.43 319.76 C957.09,319.90 936.05,319.72 935.68,319.34 ZM 587.71 298.38 C587.32,297.99 587.00,287.87 587.00,275.90 L 587.00 254.12 L 589.25 254.15 C590.49,254.16 593.65,254.40 596.27,254.68 L 601.04 255.19 L 600.77 276.85 L 600.50 298.50 L 594.46 298.79 C591.14,298.95 588.10,298.77 587.71,298.38 ZM 607.00 274.00 L 607.00 249.00 L 523.58 249.00 C477.70,249.00 439.45,248.73 438.58,248.39 C437.34,247.92 437.00,246.21 437.00,240.40 L 437.00 233.01 L 521.75 232.76 L 606.50 232.50 L 606.77 216.25 L 607.05 200.00 L 612.42 200.00 C615.82,200.00 617.94,200.46 618.20,201.25 C618.43,201.94 618.51,211.05 618.38,221.50 C618.25,231.95 618.11,253.66 618.07,269.75 L 618.00 299.00 L 612.50 299.00 L 607.00 299.00 L 607.00 274.00 ZM 655.71 298.38 C655.32,297.99 655.00,275.69 655.00,248.83 L 655.00 200.00 L 661.01 200.00 L 667.02 200.00 L 666.76 249.25 L 666.50 298.50 L 661.46 298.79 C658.69,298.96 656.10,298.77 655.71,298.38 ZM 942.71 298.38 C942.32,297.99 942.00,288.07 942.00,276.33 L 942.00 255.00 L 949.02 255.00 L 956.04 255.00 L 955.77 276.75 L 955.50 298.50 L 949.46 298.79 C946.14,298.95 943.10,298.77 942.71,298.38 ZM 962.71 298.38 C962.32,297.99 962.00,286.72 962.00,273.33 L 962.00 249.00 L 878.08 249.00 C831.93,249.00 793.45,248.73 792.58,248.39 C791.34,247.92 791.00,246.21 791.00,240.40 L 791.00 233.01 L 876.25 232.76 L 961.50 232.50 L 961.77 216.25 L 962.05 200.00 L 967.52 200.00 L 973.00 200.00 L 973.07 218.25 C973.11,228.29 973.23,250.45 973.32,267.50 L 973.50 298.50 L 968.46 298.79 C965.69,298.96 963.10,298.77 962.71,298.38 ZM 1011.00 249.55 L 1011.00 200.00 L 1017.01 200.00 L 1023.02 200.00 L 1022.76 249.25 L 1022.50 298.50 L 1016.75 298.80 L 1011.00 299.10 L 1011.00 249.55 ZM 624.00 294.58 C624.00,291.77 624.82,290.44 628.68,287.05 L 633.36 282.93 L 628.68 278.18 C625.42,274.87 624.00,272.61 624.00,270.72 C624.00,269.22 624.32,268.00 624.72,268.00 C625.12,268.00 628.04,270.57 631.22,273.72 L 637.00 279.44 L 642.78 273.72 C645.96,270.57 648.88,268.00 649.28,268.00 C649.68,268.00 650.00,269.22 650.00,270.72 C650.00,272.61 648.57,274.88 645.29,278.21 L 640.58 283.00 L 644.86 287.36 C648.39,290.95 649.09,292.29 648.82,294.90 L 648.50 298.08 L 642.68 292.39 L 636.86 286.70 L 631.15 292.35 C628.01,295.46 625.12,298.00 624.72,298.00 C624.32,298.00 624.00,296.46 624.00,294.58 ZM 979.54 295.31 C978.99,293.10 979.64,291.92 983.69,287.81 L 988.49 282.93 L 983.75 278.57 C980.04,275.17 979.00,273.54 979.00,271.11 C979.00,269.40 979.32,268.00 979.72,268.00 C980.12,268.00 983.04,270.57 986.22,273.72 L 992.00 279.44 L 997.78 273.72 C1000.96,270.57 1003.88,268.00 1004.28,268.00 C1004.68,268.00 1005.00,269.22 1005.00,270.72 C1005.00,272.61 1003.57,274.88 1000.29,278.22 L 995.58 283.00 L 1000.29 287.78 C1003.57,291.12 1005.00,293.39 1005.00,295.28 C1005.00,296.78 1004.72,298.00 1004.39,298.00 C1004.05,298.00 1001.12,295.70 997.88,292.90 C994.28,289.78 991.41,288.01 990.49,288.36 C989.67,288.68 989.00,289.31 989.00,289.76 C989.00,290.21 987.02,292.23 984.60,294.25 L 980.20 297.93 L 979.54 295.31 ZM 780.00 286.01 C780.00,283.41 780.89,281.67 783.70,278.79 L 787.41 275.00 L 783.70 271.21 C781.28,268.72 780.00,266.48 780.00,264.71 C780.00,263.22 780.32,262.00 780.72,262.00 C781.11,262.00 783.58,264.12 786.22,266.71 L 791.00 271.42 L 795.78 266.71 C798.42,264.12 800.89,262.00 801.28,262.00 C801.68,262.00 802.00,263.22 802.00,264.71 C802.00,266.48 800.72,268.72 798.30,271.21 L 794.59 275.00 L 798.30 278.79 C800.72,281.28 802.00,283.52 802.00,285.29 C802.00,286.78 801.68,288.00 801.28,288.00 C800.89,288.00 798.41,285.88 795.78,283.29 L 791.00 278.57 L 785.50 284.00 L 780.00 289.43 L 780.00 286.01 ZM 624.00 260.79 C624.00,258.11 624.93,256.51 628.50,253.00 L 633.01 248.58 L 628.50 244.00 C625.39,240.85 624.00,238.59 624.00,236.72 C624.00,235.22 624.35,234.00 624.78,234.00 C625.22,234.00 628.01,236.48 631.00,239.50 L 636.44 245.01 L 642.50 239.00 C645.83,235.70 648.88,233.00 649.28,233.00 C649.67,233.00 650.00,234.28 650.00,235.84 C650.00,237.88 648.74,239.91 645.51,243.09 C643.04,245.51 641.01,247.97 641.01,248.55 C641.00,249.12 642.78,251.33 644.96,253.46 C648.64,257.05 651.00,262.33 649.57,263.76 C649.23,264.11 646.28,261.75 643.03,258.53 L 637.10 252.66 L 630.55 258.42 L 624.00 264.17 L 624.00 260.79 ZM 979.53 260.81 C979.85,259.04 981.90,255.66 984.16,253.21 L 988.23 248.80 L 983.61 244.12 C980.41,240.86 979.00,238.60 979.00,236.72 C979.00,235.22 979.35,234.00 979.79,234.00 C980.22,234.00 982.79,236.25 985.50,239.00 C988.21,241.75 990.91,244.00 991.50,244.00 C992.09,244.00 995.01,241.52 998.00,238.50 C1000.99,235.48 1003.78,233.00 1004.22,233.00 C1004.65,233.00 1005.00,234.37 1005.00,236.04 C1005.00,238.29 1003.77,240.40 1000.33,244.08 L 995.65 249.08 L 1000.33 253.82 C1003.58,257.13 1005.00,259.39 1005.00,261.28 C1005.00,262.78 1004.68,264.00 1004.28,264.00 C1003.88,264.00 1000.96,261.43 997.78,258.28 L 992.00 252.56 L 986.22 258.28 C983.04,261.43 980.11,264.00 979.71,264.00 C979.30,264.00 979.22,262.56 979.53,260.81 ZM 766.00 227.76 L 766.00 218.53 L 778.23 206.26 L 790.47 194.00 L 780.73 194.00 C775.38,194.00 771.00,193.60 771.00,193.10 C771.00,192.61 776.45,186.98 783.11,180.60 L 795.22 169.00 L 895.86 169.00 L 996.50 169.00 L 1008.76 180.59 C1015.50,186.96 1020.76,192.58 1020.45,193.09 C1020.11,193.63 977.48,194.00 915.77,194.00 L 811.67 194.00 L 789.91 215.50 C777.94,227.32 767.67,237.00 767.08,237.00 C766.39,237.00 766.00,233.69 766.00,227.76 ZM 624.00 227.01 C624.00,224.25 624.94,222.62 628.71,218.78 L 633.42 214.00 L 628.71 209.22 C625.43,205.88 624.00,203.61 624.00,201.72 C624.00,200.22 624.35,199.00 624.78,199.00 C625.22,199.00 628.00,201.46 630.97,204.47 L 636.38 209.94 L 642.11 204.47 C645.27,201.46 648.33,199.00 648.93,199.00 C649.52,199.00 650.00,200.22 650.00,201.72 C650.00,203.61 648.58,205.87 645.33,209.18 L 640.65 213.92 L 645.33 218.92 C648.36,222.16 650.00,224.81 650.00,226.46 C650.00,227.86 649.66,228.98 649.25,228.96 C648.84,228.94 645.80,226.49 642.50,223.51 L 636.50 218.10 L 630.25 224.27 L 624.00 230.44 L 624.00 227.01 ZM 979.00 226.28 C979.00,224.39 980.43,222.12 983.71,218.78 L 988.42 214.00 L 983.71 209.22 C980.43,205.88 979.00,203.61 979.00,201.72 C979.00,200.22 979.32,199.00 979.72,199.00 C980.12,199.00 983.01,201.54 986.14,204.64 L 991.85 210.29 L 997.76 204.64 C1001.02,201.54 1003.98,199.00 1004.34,199.00 C1004.70,199.00 1005.00,200.22 1005.00,201.72 C1005.00,203.61 1003.57,205.88 1000.29,209.22 L 995.58 214.00 L 1000.29 218.78 C1003.57,222.12 1005.00,224.39 1005.00,226.28 C1005.00,227.78 1004.68,229.00 1004.28,229.00 C1003.88,229.00 1000.96,226.43 997.78,223.28 L 992.00 217.56 L 986.22 223.28 C983.04,226.43 980.12,229.00 979.72,229.00 C979.32,229.00 979.00,227.78 979.00,226.28 ZM 441.00 226.22 C441.00,225.80 444.27,222.20 448.27,218.22 L 455.55 211.00 L 528.27 211.00 L 601.00 211.00 L 601.00 219.00 L 601.00 227.00 L 521.00 227.00 C477.00,227.00 441.00,226.65 441.00,226.22 ZM 796.00 226.22 C796.00,225.80 799.27,222.20 803.27,218.22 L 810.55 211.00 L 883.27 211.00 L 956.00 211.00 L 956.00 219.00 L 956.00 227.00 L 876.00 227.00 C832.00,227.00 796.00,226.65 796.00,226.22 ZM 732.00 525.50 L 725.56 519.00 L 732.78 519.00 L 740.00 519.00 L 740.00 525.50 C740.00,529.08 739.65,532.00 739.22,532.00 C738.79,532.00 735.54,529.08 732.00,525.50 ZM 724.00 378.00 L 724.00 243.00 L 732.00 243.00 L 740.00 243.00 L 740.00 378.00 L 740.00 513.00 L 732.00 513.00 L 724.00 513.00 L 724.00 378.00 ZM 726.00 236.32 C726.00,234.99 737.38,224.00 738.77,224.00 C739.76,224.00 740.02,225.57 739.80,230.25 L 739.50 236.50 L 732.75 236.80 C729.04,236.96 726.00,236.75 726.00,236.32 ZM 387.50 525.00 L 381.56 519.00 L 388.28 519.00 L 395.00 519.00 L 395.00 525.00 C395.00,528.30 394.65,531.00 394.22,531.00 C393.79,531.00 390.77,528.30 387.50,525.00 ZM 379.99 502.25 C379.99,496.34 379.78,435.59 379.52,367.25 L 379.05 243.00 L 387.03 243.00 L 395.00 243.00 L 395.00 378.00 L 395.00 513.00 L 387.50 513.00 L 380.00 513.00 L 379.99 502.25 ZM 382.00 236.33 C382.00,235.28 393.23,224.00 394.27,224.00 C394.72,224.00 394.96,226.81 394.80,230.25 L 394.50 236.50 L 388.25 236.80 C384.81,236.96 382.00,236.75 382.00,236.33 Z" fill="rgb(243,248,249)"/>
</g>
</svg>